<svg width="171" height="44" viewBox="0 0 171 44" fill="none" xmlns="http://www.w3.org/2000/svg">
<path d="M8.34385 43.7796C9.03826 43.7022 9.65673 43.613 10.2209 43.5119C10.6441 43.4345 11.0347 43.3512 11.3819 43.256C11.74 43.1668 12.0546 43.0657 12.3584 42.9586C12.6514 42.8515 12.9118 42.7385 13.1505 42.6195C13.3133 42.5421 13.4543 42.4589 13.5954 42.3696C13.7256 42.2863 13.8558 42.1971 13.9643 42.1019C14.0728 42.0127 14.1813 41.9175 14.2789 41.8223C14.8865 41.1917 15.1036 40.454 15.1253 39.6152V35.1058V34.9154L10.0039 35.4805V40.4005C10.0039 40.8526 9.42887 41.2869 8.6802 41.4654C8.56085 41.4951 8.4415 41.5189 8.31129 41.5308L8.26789 41.5367L8.20279 41.5427H8.19194C8.10514 41.5486 8.02919 41.5546 7.94239 41.5605C7.90984 41.5605 7.88813 41.5605 7.86643 41.5605C7.81218 41.5605 7.75793 41.5665 7.70368 41.5665C7.69283 41.5665 7.68198 41.5665 7.68198 41.5665C7.67113 41.5665 7.64943 41.5665 7.63858 41.5665C7.56263 41.5665 7.49753 41.5605 7.43242 41.5605C7.41072 41.5605 7.38902 41.5605 7.36732 41.5546C7.28052 41.5486 7.20457 41.5367 7.12862 41.5249C7.11777 41.5249 7.10692 41.5189 7.09607 41.5189C7.03096 41.507 6.97671 41.4951 6.92246 41.4773C6.90076 41.4713 6.88991 41.4654 6.86821 41.4654C6.80311 41.4475 6.73801 41.4237 6.68376 41.3999C6.65121 41.3821 6.61866 41.3702 6.5861 41.3523C6.53185 41.3166 6.4776 41.2809 6.4342 41.2393C6.4125 41.2155 6.3908 41.1976 6.37995 41.1739C6.3474 41.1322 6.3257 41.0906 6.31485 41.043C6.29315 40.9835 6.2823 40.924 6.2823 40.8526V21.3692C6.2823 20.7922 7.09607 20.3341 8.3547 20.1973C8.40895 20.1913 8.47405 20.1854 8.5283 20.1854C8.55 20.1854 8.5717 20.1854 8.58255 20.1854C8.6151 20.1854 8.6585 20.1794 8.69105 20.1794H8.7019C8.767 20.1794 8.83211 20.1854 8.89721 20.1854C8.91891 20.1854 8.92976 20.1854 8.95146 20.1913C9.01656 20.1973 9.08166 20.2092 9.14676 20.2211C9.14676 20.2211 9.14676 20.2211 9.15761 20.2211C9.22272 20.233 9.27697 20.2449 9.33122 20.2627C9.34207 20.2686 9.36377 20.2686 9.37462 20.2746C9.42887 20.2924 9.48312 20.3103 9.53737 20.3341C9.68928 20.3995 9.79778 20.4828 9.88458 20.584C9.93883 20.6553 9.98223 20.7327 9.99308 20.816C9.99308 20.8219 9.99308 20.8279 9.99308 20.8338C9.99308 20.8636 10.0039 20.8874 10.0039 20.9171V26.5152L11.1107 26.3962L15.1253 25.956V17.2049V16.3303L14.778 16.6278C14.6587 16.7289 14.5176 16.8241 14.3549 16.9074C13.9534 17.1156 13.4218 17.2762 12.8359 17.4012C12.7165 17.425 12.5971 17.4488 12.4778 17.4726C11.5013 17.651 10.3945 17.7522 9.40717 17.8414L8.79956 17.8949L8.28959 17.9485C7.73623 18.008 7.21542 18.0734 6.72716 18.1448C6.40165 18.1924 6.08699 18.24 5.78319 18.2935C5.63128 18.3173 5.49023 18.3471 5.33833 18.3768C5.05622 18.4304 4.77411 18.4899 4.51371 18.5494C4.2533 18.6088 4.00374 18.6743 3.76504 18.7397C2.94042 18.9717 2.25685 19.2454 1.71434 19.5607C0.564213 20.233 0.0325508 21.1134 0 22.2676V41.2452C0.0108503 41.7985 0.141053 42.2506 0.390609 42.6195C0.42316 42.6671 0.455711 42.7087 0.488261 42.7563C0.629315 42.9288 0.792069 43.0835 0.987373 43.2204C1.04162 43.256 1.08503 43.2858 1.13928 43.3155C1.24778 43.381 1.35628 43.4345 1.48648 43.4881C1.68179 43.5713 1.88794 43.6487 2.12665 43.7141C2.1592 43.7201 2.19175 43.732 2.2243 43.7379C2.90787 43.9104 3.76504 43.9997 4.83921 43.9997C5.82659 44.0056 6.98756 43.9283 8.34385 43.7796Z" fill="white"/>
<path d="M24.3915 41.8342C24.7604 41.8342 25.151 41.8223 25.5741 41.8045C26.2794 41.7688 27.0498 41.7033 27.8961 41.6141L27.9395 41.6081C28.1022 41.5903 28.265 41.5724 28.4169 41.5486C28.7316 41.507 29.0462 41.4654 29.35 41.4118C29.9576 41.3107 30.5327 41.1917 31.0752 41.0608C31.2163 41.0251 31.3465 40.9954 31.4767 40.9597C31.7371 40.8883 31.9975 40.811 32.2362 40.7336C32.974 40.4957 33.6142 40.222 34.1567 39.9245C35.2743 39.2999 35.7951 38.4968 35.8276 37.3307V18.4185C35.8168 18.1984 35.7951 17.9961 35.7517 17.8117C35.7408 17.7522 35.7191 17.6867 35.7083 17.6272C35.6866 17.5678 35.6649 17.5083 35.6432 17.4547C35.5998 17.3417 35.5455 17.2405 35.4804 17.1394C35.2092 16.6992 34.7535 16.3839 34.1133 16.1638C34.0048 16.1281 33.8963 16.0924 33.7878 16.0626C33.7552 16.0507 33.7118 16.0448 33.6793 16.0329C33.5925 16.0091 33.5165 15.9912 33.4297 15.9734C33.3863 15.9615 33.3429 15.9555 33.3104 15.9436C33.2127 15.9258 33.1259 15.9079 33.0174 15.8901C32.9849 15.8842 32.9523 15.8782 32.9198 15.8723C32.7896 15.8485 32.6485 15.8306 32.5183 15.8128C32.4857 15.8068 32.4532 15.8068 32.4315 15.8009C32.323 15.789 32.2036 15.7771 32.0951 15.7652C32.0517 15.7592 31.9975 15.7592 31.9541 15.7533C31.8456 15.7414 31.7479 15.7354 31.6394 15.7295C31.596 15.7235 31.5418 15.7235 31.4984 15.7176C31.4658 15.7176 31.4441 15.7176 31.4116 15.7116C31.3031 15.7057 31.1946 15.6997 31.0861 15.6997C31.0644 15.6997 31.0427 15.6997 31.0318 15.6997C30.8691 15.6938 30.7063 15.6938 30.5436 15.6938C30.5002 15.6938 30.4567 15.6938 30.4133 15.6938C30.2614 15.6938 30.1095 15.6997 29.9576 15.6997C29.9142 15.6997 29.86 15.6997 29.8166 15.7057C29.6321 15.7116 29.4368 15.7176 29.2415 15.7295C29.209 15.7295 29.1764 15.7354 29.1439 15.7354C28.9703 15.7473 28.7967 15.7592 28.6231 15.7711C28.5688 15.7771 28.5146 15.7771 28.4603 15.783C28.2541 15.8009 28.048 15.8187 27.8418 15.8425H27.8201C27.0823 15.9258 26.4096 16.015 25.7803 16.1102C25.4656 16.1578 25.1727 16.2114 24.8797 16.2649C23.8815 16.4553 23.0352 16.6813 22.3299 16.949C22.1346 17.0264 21.9393 17.1037 21.7657 17.187C21.4076 17.3536 21.1038 17.5321 20.8434 17.7284C20.7132 17.8236 20.5939 17.9247 20.4745 18.0318C19.8669 18.6088 19.5739 19.3108 19.5522 20.1556V39.0679C19.5522 39.1393 19.5631 39.2047 19.5631 39.2701C19.6282 40.0614 19.9429 40.6384 20.5396 41.0489C20.6915 41.1501 20.8543 41.2452 21.0387 41.3226C21.1364 41.3642 21.234 41.4059 21.3425 41.4416C21.4836 41.4892 21.6246 41.5308 21.7765 41.5665C22.2214 41.6795 22.7422 41.7569 23.3498 41.7985C23.6645 41.8223 24.0117 41.8342 24.3915 41.8342ZM27.8201 38.2885C27.7225 38.3004 27.6357 38.3064 27.5489 38.3123C27.5163 38.3123 27.4946 38.3123 27.4621 38.3183C27.397 38.3183 27.3427 38.3242 27.2776 38.3242C27.2668 38.3242 27.2451 38.3242 27.2342 38.3242C27.2234 38.3242 27.2017 38.3242 27.1908 38.3242C27.1149 38.3242 27.0498 38.3183 26.9738 38.3183C26.9521 38.3183 26.9413 38.3183 26.9196 38.3123C26.8328 38.3064 26.7568 38.2945 26.6809 38.2826C26.6592 38.2766 26.6483 38.2766 26.6266 38.2707C26.5724 38.2588 26.5073 38.2469 26.4639 38.235C26.4422 38.229 26.4205 38.2231 26.4096 38.2171C26.3445 38.1993 26.2794 38.1755 26.2252 38.1517C26.1275 38.1041 26.0407 38.0506 25.9756 37.9911C25.8671 37.884 25.8128 37.7531 25.8128 37.6044V20.4055C25.8128 20.3579 25.8237 20.3162 25.8345 20.2746C25.8454 20.2211 25.8671 20.1735 25.8888 20.1259C25.9539 20.0069 26.0515 19.8939 26.1926 19.7868C26.2469 19.7451 26.312 19.6975 26.3879 19.6618C26.4639 19.6142 26.5615 19.5726 26.6592 19.531C26.7243 19.5012 26.7894 19.4774 26.8653 19.4536C26.9196 19.4358 26.9847 19.412 27.0498 19.3941C27.2993 19.3227 27.5923 19.2692 27.9069 19.2335C27.9178 19.2335 27.9178 19.2335 27.9286 19.2335C28.0371 19.2216 28.1348 19.2157 28.2433 19.2157C28.482 19.2157 28.7099 19.2454 28.9052 19.3049C28.9703 19.3227 29.0354 19.3465 29.0896 19.3763C29.133 19.3941 29.1656 19.412 29.1981 19.4298C29.2415 19.4536 29.2849 19.4834 29.3175 19.5131C29.3717 19.5548 29.4151 19.6083 29.4585 19.6559C29.4802 19.6916 29.5019 19.7273 29.5236 19.763C29.5345 19.7868 29.5453 19.8106 29.5453 19.8403C29.5453 19.8522 29.5562 19.8582 29.5562 19.8701C29.5562 19.8998 29.567 19.9296 29.567 19.9593V37.1582C29.567 37.42 29.3717 37.6758 29.0571 37.884C28.7641 38.0803 28.3518 38.2231 27.9069 38.2885C27.8744 38.2826 27.8418 38.2885 27.8201 38.2885Z" fill="white"/>
<path d="M70.7327 11.2319V11.0356L64.6023 11.7436V22.4877V27.8716L58.5804 12.5943L58.5479 12.511L58.5153 12.4099L52.2222 13.1238V38.9786L53.3289 38.8537L58.2007 38.2945V25.3313L60.4358 29.4719L64.8085 37.5746L65.6548 37.4735L70.7327 36.8905V11.2319Z" fill="white"/>
<path d="M84.7945 13.0107L89.7097 12.4753V9.17949V8.98912L73.8032 10.7322V14.2184L74.8991 14.0994L78.5339 13.7008V14.5218L78.5882 35.8672V35.9922L79.6841 35.8732L84.8488 35.308L84.7945 13.0107Z" fill="white"/>
<path d="M145.73 2.89722L145.686 2.7128L136.377 3.73605L136.236 3.74795L131.277 30.0252L131.255 30.168L132.438 30.0371L137.321 29.5017L138.492 21.1789L143.798 20.5958L143.961 21.399L145.437 28.6153L146.446 28.5022L151.48 27.949L145.73 2.89722ZM140.663 6.90098L140.977 6.86528L142.279 13.1L143.212 17.5677L141.574 17.7462L138.97 18.0318L140.663 6.90098Z" fill="white"/>
<path d="M159.531 26.8424C159.9 26.8424 160.302 26.8305 160.725 26.8127C161.43 26.777 162.201 26.7115 163.058 26.6223C164.349 26.4795 165.553 26.2594 166.617 25.9739C166.877 25.9025 167.137 25.8251 167.387 25.7478C168.125 25.5098 168.776 25.2362 169.318 24.9328C169.383 24.8911 169.459 24.8554 169.524 24.8138C169.655 24.7305 169.774 24.6472 169.893 24.5639C170.143 24.3735 170.338 24.1653 170.501 23.9393C170.816 23.4931 170.978 22.9695 171 22.3389L170.881 0.196321V0.130881V0L164.609 0.690098L164.729 22.2676C164.729 22.3865 164.718 22.5234 164.674 22.6661C164.653 22.7375 164.62 22.8089 164.588 22.8803C164.566 22.916 164.544 22.9517 164.522 22.9874C164.447 23.0945 164.349 23.1956 164.219 23.2908C164.067 23.4038 163.861 23.499 163.6 23.5704C163.437 23.618 163.242 23.6537 163.025 23.6715C162.917 23.6775 162.819 23.6775 162.721 23.6834C162.71 23.6834 162.7 23.6834 162.678 23.6834C162.667 23.6834 162.656 23.6834 162.645 23.6834C162.548 23.6834 162.45 23.6775 162.352 23.6715C162.342 23.6715 162.331 23.6715 162.32 23.6656C162.233 23.6596 162.157 23.6477 162.081 23.6358C162.07 23.6358 162.049 23.6299 162.038 23.6299C161.962 23.6121 161.886 23.5942 161.81 23.5764C161.799 23.5704 161.777 23.5645 161.767 23.5645C161.691 23.5407 161.625 23.5169 161.571 23.4871C161.278 23.3443 161.137 23.1421 161.061 22.9398C161.018 22.8149 161.007 22.6959 161.007 22.5888L160.888 1.29691V1.23147V1.10654L154.616 1.79663L154.736 24.0939C154.757 24.7483 154.931 25.2719 155.278 25.6764C155.343 25.7537 155.419 25.8311 155.495 25.9025C155.69 26.075 155.929 26.2297 156.222 26.3546C156.417 26.4379 156.624 26.5152 156.862 26.5747C156.895 26.5807 156.927 26.5866 156.96 26.5985C157.524 26.7413 158.218 26.8305 159.032 26.8543C159.173 26.8424 159.347 26.8424 159.531 26.8424Z" fill="white"/>
<path d="M106.387 32.9403C106.463 32.9343 106.539 32.9343 106.615 32.9284C106.647 32.9284 106.669 32.9224 106.702 32.9224C106.799 32.9165 106.908 32.9046 107.016 32.8927L111.595 32.387L111.552 32.1847H111.519C111.259 32.1847 111.063 32.1431 110.89 32.0479C110.575 31.8754 110.369 31.5601 110.239 31.102C110.206 30.9711 110.174 30.8283 110.141 30.6796C110.119 30.5309 110.098 30.3643 110.076 30.1918C110.043 29.7634 110.033 29.2637 110.033 28.7104L109.761 22.3984C109.761 21.7559 109.458 21.2086 108.915 20.8041C108.372 20.3936 107.591 20.1199 106.636 20.0307C107.287 19.8344 107.873 19.5488 108.362 19.1978C108.991 18.7516 109.447 18.1983 109.653 17.6153C110.271 16.0567 110.304 10.5894 109.696 9.00696C109.544 8.58457 109.251 8.22763 108.85 7.95397C108.611 7.79334 108.34 7.65651 108.025 7.56133C107.982 7.54943 107.928 7.53158 107.873 7.51968C107.863 7.51373 107.841 7.51373 107.83 7.50778C107.776 7.49589 107.721 7.47804 107.667 7.46614C107.656 7.46614 107.646 7.46019 107.646 7.46019C107.58 7.44234 107.504 7.43045 107.429 7.4126C107.407 7.40665 107.385 7.40665 107.374 7.4007C107.309 7.3888 107.233 7.3769 107.168 7.36501C107.146 7.36501 107.136 7.35906 107.114 7.35906C107.027 7.34716 106.929 7.33526 106.832 7.32336C106.81 7.32336 106.788 7.31741 106.767 7.31741C106.68 7.31146 106.604 7.29956 106.506 7.29362C106.485 7.29362 106.452 7.28767 106.43 7.28767C106.322 7.28172 106.202 7.27577 106.083 7.26982C106.061 7.26982 106.04 7.26982 106.018 7.26982C105.909 7.26387 105.801 7.26387 105.692 7.26387C105.649 7.26387 105.617 7.26387 105.573 7.26387C105.508 7.26387 105.443 7.26387 105.378 7.26387C105.334 7.26387 105.28 7.26387 105.237 7.26982C105.161 7.26982 105.096 7.27577 105.02 7.28172C104.976 7.28172 104.922 7.28767 104.879 7.28767C104.792 7.29362 104.705 7.29956 104.618 7.30551C104.575 7.31146 104.531 7.31146 104.488 7.31741C104.358 7.32931 104.217 7.34121 104.087 7.35906L93.4317 8.52508L93.2798 8.54293L93.5402 34.38L94.6361 34.261L99.8225 33.678L99.5621 22.4341L101.971 22.1724C102.058 22.1605 102.134 22.1545 102.21 22.1486C102.231 22.1486 102.253 22.1486 102.275 22.1426C102.329 22.1426 102.383 22.1367 102.437 22.1367C102.448 22.1367 102.47 22.1367 102.481 22.1367C102.492 22.1367 102.492 22.1367 102.503 22.1367C102.568 22.1367 102.633 22.1367 102.698 22.1426H102.709C102.774 22.1486 102.828 22.1545 102.882 22.1664C102.904 22.1664 102.915 22.1724 102.926 22.1783C102.969 22.1843 103.002 22.1962 103.045 22.2021C103.056 22.2081 103.078 22.2081 103.088 22.214C103.143 22.2259 103.186 22.2438 103.229 22.2616C103.371 22.3211 103.49 22.4044 103.577 22.5115C103.653 22.5888 103.707 22.684 103.75 22.7911C103.805 22.9219 103.837 23.0647 103.848 23.2313L103.978 26.4914L104.108 29.7515C104.108 29.8646 104.108 29.9717 104.108 30.0728C104.097 31.215 104.163 31.9468 104.499 32.387C104.618 32.5476 104.781 32.6726 104.976 32.7618C105.041 32.7915 105.107 32.8153 105.183 32.8391C105.204 32.8451 105.226 32.851 105.248 32.857C105.302 32.8689 105.356 32.8867 105.421 32.8927C105.454 32.8986 105.475 32.9046 105.508 32.9046C105.573 32.9165 105.649 32.9224 105.725 32.9284C105.736 32.9284 105.736 32.9284 105.747 32.9284C105.758 32.9284 105.779 32.9343 105.79 32.9343C105.888 32.9403 105.985 32.9462 106.094 32.9462C106.17 32.9462 106.257 32.9462 106.343 32.9403C106.354 32.9403 106.376 32.9403 106.387 32.9403ZM99.5512 19.5904V10.1373L101.96 9.86958C102.047 9.86364 102.123 9.85174 102.199 9.85174C102.22 9.85174 102.242 9.85174 102.264 9.84579C102.318 9.84579 102.372 9.83984 102.427 9.83984C102.437 9.83984 102.459 9.83984 102.47 9.83984C102.481 9.83984 102.481 9.83984 102.492 9.83984C102.557 9.83984 102.622 9.83984 102.687 9.84579H102.698C102.763 9.85174 102.817 9.85769 102.871 9.86363C102.893 9.86363 102.904 9.86958 102.926 9.86958C102.969 9.87553 103.002 9.88743 103.045 9.89338C103.056 9.89933 103.078 9.89933 103.088 9.90528C103.143 9.91718 103.186 9.93502 103.229 9.95287C103.457 10.054 103.631 10.2146 103.729 10.4407C103.794 10.5775 103.837 10.7382 103.848 10.9226C103.848 10.9761 103.946 16.6516 103.783 17.5975C103.642 18.5077 103.002 19.1324 102.079 19.293C102.014 19.3049 101.96 19.3108 101.895 19.3227L101.862 19.3287L99.5512 19.5904Z" fill="white"/>
<path d="M127.838 27.4373V27.2529L123.834 27.6931L121.62 27.9311L121.382 20.2151L127.317 19.5607L127.284 16.253V16.0626L123.649 16.4612L121.414 16.7051V8.64407L127.631 7.96587V5.00321V4.81284L115.316 6.16329L115.175 6.18113L115.371 31.7326V31.8575L116.477 31.7385L127.838 30.4952V27.4373Z" fill="white"/>
<path d="M47.3178 13.8793V13.8139V13.6889L41.0464 14.3731V14.4623L41.1223 40.0435V40.1685L42.2291 40.0495L47.3829 39.4843L47.3178 13.8793Z" fill="white"/>
</svg>
